<svg width="354" height="113" viewBox="0 0 354 113" fill="none" xmlns="http://www.w3.org/2000/svg">
<g clip-path="url(#clip0_2106_2449)">
<path d="M297.27 0H55.5934C24.89 0 0 25.0142 0 55.8707V55.871C0 86.7275 24.89 111.742 55.5934 111.742H297.27C327.974 111.742 352.864 86.7275 352.864 55.871V55.8707C352.864 25.0142 327.974 0 297.27 0Z" fill="#D02119"/>
<path d="M103.614 69.2494C102.992 69.2494 102.452 69.0182 101.992 68.5564C101.56 68.0947 101.344 67.5516 101.344 66.9272V41.8319C101.344 41.2073 101.56 40.6641 101.992 40.2023C102.452 39.7406 102.992 39.5098 103.614 39.5098H117.964C118.586 39.5098 119.113 39.7406 119.545 40.2023C120.004 40.6641 120.234 41.2073 120.234 41.8319V42.7689C120.234 43.3936 120.004 43.9367 119.545 44.3985C119.113 44.8601 118.586 45.091 117.964 45.091H108.559C108.343 45.091 108.235 45.1996 108.235 45.4169V50.7945C108.235 51.0389 108.343 51.1612 108.559 51.1612H117.153C117.774 51.1612 118.301 51.392 118.734 51.8537C119.194 52.3154 119.423 52.8586 119.423 53.4833V54.0944C119.423 54.719 119.194 55.2622 118.734 55.7239C118.301 56.1856 117.774 56.4165 117.153 56.4165H108.559C108.343 56.4165 108.235 56.5251 108.235 56.7424V63.3421C108.235 63.5594 108.343 63.6681 108.559 63.6681H117.964C118.586 63.6681 119.113 63.8989 119.545 64.3604C120.004 64.8222 120.234 65.3652 120.234 65.9903V66.9272C120.234 67.5516 120.004 68.0947 119.545 68.5564C119.113 69.0182 118.586 69.2494 117.964 69.2494H103.614ZM124.466 45.254C123.844 45.254 123.304 45.0231 122.844 44.5614C122.385 44.0997 122.155 43.5565 122.155 42.9318V41.8319C122.155 41.2073 122.385 40.6641 122.844 40.2023C123.304 39.7406 123.844 39.5098 124.466 39.5098H142.545C143.167 39.5098 143.708 39.7406 144.167 40.2023C144.626 40.6641 144.856 41.2073 144.856 41.8319V42.9318C144.856 43.5565 144.626 44.0997 144.167 44.5614C143.708 45.0231 143.167 45.254 142.545 45.254H137.357C137.14 45.254 137.032 45.3626 137.032 45.5799V66.9272C137.032 67.5516 136.802 68.0947 136.343 68.5564C135.883 69.0182 135.343 69.2494 134.722 69.2494H132.289C131.668 69.2494 131.127 69.0182 130.668 68.5564C130.209 68.0947 129.979 67.5516 129.979 66.9272V45.5799C129.979 45.3626 129.87 45.254 129.654 45.254H124.466ZM149.482 69.2494C148.86 69.2494 148.319 69.0182 147.86 68.5564C147.4 68.0947 147.171 67.5516 147.171 66.9272V41.8319C147.171 41.2073 147.4 40.6641 147.86 40.2023C148.319 39.7406 148.86 39.5098 149.482 39.5098H151.792C152.413 39.5098 152.94 39.7406 153.373 40.2023C153.833 40.6641 154.062 41.2073 154.062 41.8319V50.7945C154.062 51.0389 154.184 51.1612 154.427 51.1612H162.778C163.021 51.1612 163.143 51.0389 163.143 50.7945V41.8319C163.143 41.2073 163.359 40.6641 163.791 40.2023C164.25 39.7406 164.791 39.5098 165.413 39.5098H167.723C168.345 39.5098 168.885 39.7406 169.344 40.2023C169.804 40.6641 170.034 41.2073 170.034 41.8319V66.9272C170.034 67.5516 169.804 68.0947 169.344 68.5564C168.885 69.0182 168.345 69.2494 167.723 69.2494H165.413C164.791 69.2494 164.25 69.0182 163.791 68.5564C163.359 68.0947 163.143 67.5516 163.143 66.9272V56.7424C163.143 56.5251 163.021 56.4165 162.778 56.4165H154.427C154.184 56.4165 154.062 56.5251 154.062 56.7424V66.9272C154.062 67.5516 153.833 68.0947 153.373 68.5564C152.94 69.0182 152.413 69.2494 151.792 69.2494H149.482Z" fill="white"/>
<path d="M175.729 69.2495C175.107 69.2495 174.567 69.0183 174.107 68.5566C173.648 68.0948 173.418 67.5518 173.418 66.9274V41.8321C173.418 41.2074 173.648 40.6642 174.107 40.2025C174.567 39.7408 175.107 39.5099 175.729 39.5099H178.039C178.742 39.5099 179.377 39.7 179.945 40.0803C180.512 40.4605 180.931 40.9765 181.201 41.6284L187.484 56.987C187.484 57.0141 187.498 57.0277 187.525 57.0277C187.552 57.0277 187.565 57.0141 187.565 56.987L193.849 41.6284C194.119 40.9765 194.538 40.4605 195.105 40.0803C195.673 39.7 196.308 39.5099 197.011 39.5099H199.484C200.105 39.5099 200.645 39.7408 201.105 40.2025C201.564 40.6642 201.794 41.2074 201.794 41.8321V66.9274C201.794 67.5518 201.564 68.0948 201.105 68.5566C200.645 69.0183 200.105 69.2495 199.484 69.2495H197.538C196.916 69.2495 196.376 69.0183 195.916 68.5566C195.484 68.0948 195.268 67.5518 195.268 66.9274V51.0798C195.268 51.0526 195.254 51.0391 195.227 51.0391C195.173 51.0391 195.146 51.0526 195.146 51.0798L191.254 60.3276C190.984 60.9794 190.551 61.4954 189.957 61.8757C189.39 62.2559 188.754 62.446 188.052 62.446H186.998C186.295 62.446 185.647 62.2559 185.052 61.8757C184.485 61.4954 184.066 60.9794 183.795 60.3276L179.904 51.0798C179.904 51.0526 179.877 51.0391 179.823 51.0391C179.796 51.0391 179.783 51.0526 179.783 51.0798V66.9274C179.783 67.5518 179.553 68.0948 179.093 68.5566C178.661 69.0183 178.134 69.2495 177.512 69.2495H175.729ZM227.395 58.4536C227.395 65.9225 223.612 69.6568 216.045 69.6568C208.478 69.6568 204.695 65.9225 204.695 58.4536V41.8321C204.695 41.2074 204.924 40.6642 205.384 40.2025C205.843 39.7408 206.384 39.5099 207.006 39.5099H209.356C209.978 39.5099 210.519 39.7408 210.978 40.2025C211.438 40.6642 211.667 41.2074 211.667 41.8321V58.9425C211.667 60.7893 212.019 62.1065 212.721 62.8941C213.424 63.6818 214.559 64.0756 216.126 64.0756C217.693 64.0756 218.829 63.6818 219.531 62.8941C220.234 62.1065 220.585 60.7893 220.585 58.9425V41.8321C220.585 41.2074 220.815 40.6642 221.275 40.2025C221.734 39.7408 222.275 39.5099 222.896 39.5099H225.085C225.707 39.5099 226.247 39.7408 226.707 40.2025C227.166 40.6642 227.395 41.2074 227.395 41.8321V58.4536ZM232.641 69.2495C232.019 69.2495 231.478 69.0183 231.019 68.5566C230.559 68.0948 230.33 67.5518 230.33 66.9274V41.8321C230.33 41.2074 230.559 40.6642 231.019 40.2025C231.478 39.7408 232.019 39.5099 232.641 39.5099H234.951C235.653 39.5099 236.289 39.7 236.856 40.0803C237.424 40.4605 237.842 40.9765 238.113 41.6284L244.396 56.987C244.396 57.0141 244.41 57.0277 244.437 57.0277C244.463 57.0277 244.477 57.0141 244.477 56.987L250.76 41.6284C251.031 40.9765 251.449 40.4605 252.017 40.0803C252.584 39.7 253.22 39.5099 253.922 39.5099H256.395C257.016 39.5099 257.557 39.7408 258.016 40.2025C258.476 40.6642 258.706 41.2074 258.706 41.8321V66.9274C258.706 67.5518 258.476 68.0948 258.016 68.5566C257.557 69.0183 257.016 69.2495 256.395 69.2495H254.449C253.828 69.2495 253.287 69.0183 252.828 68.5566C252.395 68.0948 252.179 67.5518 252.179 66.9274V51.0798C252.179 51.0526 252.166 51.0391 252.138 51.0391C252.085 51.0391 252.057 51.0526 252.057 51.0798L248.166 60.3276C247.895 60.9794 247.463 61.4954 246.869 61.8757C246.301 62.2559 245.666 62.446 244.964 62.446H243.91C243.207 62.446 242.559 62.2559 241.964 61.8757C241.396 61.4954 240.978 60.9794 240.707 60.3276L236.816 51.0798C236.816 51.0526 236.788 51.0391 236.734 51.0391C236.707 51.0391 236.694 51.0526 236.694 51.0798V66.9274C236.694 67.5518 236.464 68.0948 236.005 68.5566C235.572 69.0183 235.045 69.2495 234.424 69.2495H232.641ZM268.782 56.6203V63.7904C268.782 64.0348 268.903 64.1844 269.146 64.2382C269.714 64.3471 270.403 64.4015 271.213 64.4015C273.132 64.4015 274.538 64.0487 275.429 63.3423C276.321 62.6089 276.767 61.4954 276.767 60.0017C276.767 57.503 274.74 56.2537 270.686 56.2537H269.105C268.889 56.2537 268.782 56.3759 268.782 56.6203ZM268.782 44.969V50.9576C268.782 51.1749 268.889 51.2835 269.105 51.2835H270.119C274.064 51.2835 276.037 50.1021 276.037 47.7392C276.037 45.485 274.389 44.3579 271.092 44.3579C270.308 44.3579 269.646 44.4122 269.105 44.5208C268.889 44.5751 268.782 44.7245 268.782 44.969ZM264.282 69.3309C263.633 69.2764 263.093 68.9914 262.66 68.4752C262.228 67.9591 262.012 67.3756 262.012 66.7237V42.0357C262.012 41.3567 262.228 40.7728 262.66 40.284C263.12 39.7679 263.674 39.4828 264.322 39.4284C266.43 39.2112 268.497 39.1025 270.524 39.1025C278.361 39.1025 282.28 41.6419 282.28 46.7207C282.28 48.4318 281.726 49.8848 280.618 51.0798C279.537 52.2748 278.078 53.0353 276.24 53.3612C276.213 53.3612 276.2 53.3884 276.2 53.4427C276.2 53.4698 276.227 53.4834 276.281 53.4834C278.415 53.7822 280.105 54.597 281.348 55.9278C282.618 57.2586 283.253 58.8474 283.253 60.6942C283.253 63.7089 282.253 65.9629 280.253 67.457C278.28 68.9235 275.173 69.6568 270.93 69.6568C268.795 69.6568 266.579 69.548 264.282 69.3309ZM295.089 45.5393L292.13 57.2314C292.103 57.3129 292.116 57.3944 292.17 57.4759C292.251 57.5302 292.332 57.5573 292.413 57.5573H297.846C297.926 57.5573 297.994 57.5302 298.048 57.4759C298.129 57.3944 298.156 57.3129 298.129 57.2314L295.17 45.5393C295.17 45.5121 295.156 45.4985 295.13 45.4985C295.102 45.4985 295.089 45.5121 295.089 45.5393ZM284.265 69.2495C283.698 69.2495 283.239 69.0183 282.887 68.5566C282.563 68.0948 282.495 67.5928 282.684 67.0497L290.873 41.7098C291.089 41.058 291.467 40.5284 292.008 40.121C292.576 39.7136 293.197 39.5099 293.873 39.5099H296.548C297.251 39.5099 297.886 39.7136 298.453 40.121C299.021 40.5284 299.399 41.058 299.588 41.7098L307.736 67.0497C307.925 67.5928 307.844 68.0948 307.493 68.5566C307.169 69.0183 306.723 69.2495 306.155 69.2495H303.439C302.764 69.2495 302.156 69.0459 301.615 68.6386C301.074 68.2037 300.723 67.6606 300.561 67.0087L299.588 63.1386C299.562 62.9213 299.427 62.8127 299.183 62.8127H291.076C290.859 62.8127 290.724 62.9213 290.67 63.1386L289.697 67.0087C289.535 67.6606 289.184 68.2037 288.643 68.6386C288.103 69.0459 287.495 69.2495 286.819 69.2495H284.265ZM311.509 69.2495C310.887 69.2495 310.347 69.0183 309.887 68.5566C309.455 68.0948 309.239 67.5518 309.239 66.9274V41.8321C309.239 41.2074 309.455 40.6642 309.887 40.2025C310.347 39.7408 310.887 39.5099 311.509 39.5099H314.509C315.13 39.5099 315.657 39.7408 316.089 40.2025C316.549 40.6642 316.779 41.2074 316.779 41.8321V66.9274C316.779 67.5518 316.549 68.0948 316.089 68.5566C315.657 69.0183 315.13 69.2495 314.509 69.2495H311.509Z" fill="white"/>
<path d="M60.2332 14.0088V46.0609L33.6211 58.1633L60.2332 14.0088Z" fill="#62D0FC"/>
<path d="M86.836 58.1633L60.2344 46.0609V14.0088L86.836 58.1633Z" fill="#1EABE4"/>
<path d="M60.2332 73.8865V46.0615L33.6211 58.1639L60.2332 73.8865Z" fill="#1EABE4"/>
<path d="M86.836 58.1639L60.2344 46.0615V73.8865L86.836 58.1639Z" fill="#0075A5"/>
<path d="M76.6637 64.1758H43.8008L60.2399 73.9003L76.6637 64.1758Z" fill="#E91F25"/>
<path d="M86.857 63.2061L60.2344 78.9287V100.697L86.857 63.2061Z" fill="#1EABE4"/>
<path d="M33.6211 63.2061L60.2332 78.9287V100.697L33.6211 63.2061Z" fill="#62D0FC"/>
<path d="M76.6531 43.499H43.8223V61.714H76.6531V43.499Z" fill="#E91F25"/>
<path d="M76.6504 43.499H60.2402V61.714H76.6504V43.499Z" fill="#BF0613"/>
<path d="M45.8439 45.457H58.9136C59.132 45.457 59.3082 45.6342 59.3082 45.8517V53.8665H45.8439C45.6255 53.8665 45.4492 53.6893 45.4492 53.4718V45.8526C45.4492 45.6342 45.6264 45.4579 45.8439 45.4579V45.457Z" fill="black"/>
<path d="M61.6095 45.4579H74.6792C74.8976 45.4579 75.0739 45.6351 75.0739 45.8526V53.4718C75.0739 53.6902 74.8967 53.8665 74.6792 53.8665H61.2148V45.8517C61.2148 45.6333 61.392 45.457 61.6095 45.457V45.4579Z" fill="black"/>
<path d="M45.8579 54.789H59.3091V58.1426C59.3091 58.3679 59.1258 58.5512 58.9004 58.5512H45.8579C45.6325 58.5512 45.4492 58.3679 45.4492 58.1426V55.1968C45.4492 54.9714 45.6325 54.7881 45.8579 54.7881V54.789Z" fill="black"/>
<path d="M61.2148 54.789H74.6652C74.8906 54.789 75.0739 54.9723 75.0739 55.1976V58.1417C75.0739 58.3671 74.8906 58.5504 74.6652 58.5504H61.6235C61.3981 58.5504 61.2148 58.3671 61.2148 58.1417V54.7881V54.789Z" fill="black"/>
<path fill-rule="evenodd" clip-rule="evenodd" d="M43.8133 43.5504L76.6573 43.5417C76.5732 41.9456 76.8056 40.524 75.4269 39.5698C74.236 38.7463 72.7995 38.4552 71.0999 38.1771C65.4082 37.2467 55.201 37.2458 49.4988 38.1736C47.9834 38.4201 46.1628 38.784 45.1464 39.5435C44.1361 40.2986 43.7239 41.6176 43.8125 43.5496L43.8133 43.5504Z" fill="white"/>
<path fill-rule="evenodd" clip-rule="evenodd" d="M60.2379 43.5464L76.6577 43.542C76.5735 41.9459 76.8059 40.5243 75.4273 39.5701C74.2363 38.7466 72.7998 38.4555 71.1002 38.1775C68.2544 37.7118 64.2106 37.4794 60.2344 37.4785L60.237 43.5455L60.2379 43.5464Z" fill="#E3E6E8"/>
<path d="M61.8724 39.417H51.7423C51.5481 39.417 51.3906 39.5744 51.3906 39.7687V41.7726C51.3906 41.9668 51.5481 42.1242 51.7423 42.1242H61.8724C62.0666 42.1242 62.224 41.9668 62.224 41.7726V39.7687C62.224 39.5744 62.0666 39.417 61.8724 39.417Z" fill="#020100"/>
<path d="M69.2009 39.0273H66.506C66.3117 39.0273 66.1543 39.1848 66.1543 39.379V42.1608C66.1543 42.355 66.3117 42.5125 66.506 42.5125H69.2009C69.3952 42.5125 69.5526 42.355 69.5526 42.1608V39.379C69.5526 39.1848 69.3952 39.0273 69.2009 39.0273Z" fill="#020100"/>
<path fill-rule="evenodd" clip-rule="evenodd" d="M76.6543 64.1562L72.9815 64.3176C68.9342 64.4956 65.2061 65.0841 62.9163 68.3736L60.2301 72.2315L57.5456 68.3701C55.2488 65.0665 51.5032 64.4737 47.4392 64.3062L43.8164 64.1562V61.6445H76.6543V64.1562Z" fill="#FBCE01"/>
<path fill-rule="evenodd" clip-rule="evenodd" d="M60.2405 61.6445H76.6586V64.1562L72.9858 64.3176C68.9385 64.4956 65.2104 65.0841 62.9206 68.3736L60.2344 72.2315L60.2405 61.6445Z" fill="#F9BE03"/>
<path d="M63.1408 63.8426H57.3334C57.1878 63.8426 57.0703 63.7251 57.0703 63.5795C57.0703 63.4339 57.1878 63.3164 57.3334 63.3164H63.1408C63.2864 63.3164 63.4039 63.4339 63.4039 63.5795C63.4039 63.7251 63.2864 63.8426 63.1408 63.8426Z" fill="black"/>
<path d="M63.1408 65.2176H57.3334C57.1878 65.2176 57.0703 65.1001 57.0703 64.9545C57.0703 64.8089 57.1878 64.6914 57.3334 64.6914H63.1408C63.2864 64.6914 63.4039 64.8089 63.4039 64.9545C63.4039 65.1001 63.2864 65.2176 63.1408 65.2176Z" fill="black"/>
<path d="M63.1408 66.5936H57.3334C57.1878 66.5936 57.0703 66.4761 57.0703 66.3305C57.0703 66.1849 57.1878 66.0674 57.3334 66.0674H63.1408C63.2864 66.0674 63.4039 66.1849 63.4039 66.3305C63.4039 66.4761 63.2864 66.5936 63.1408 66.5936Z" fill="black"/>
<path d="M76.6531 60.5957H43.8223V62.0708H76.6531V60.5957Z" fill="#029D3D"/>
<path d="M76.6609 60.5957H60.2402V62.0708H76.6609V60.5957Z" fill="#07702C"/>
<path d="M53.1536 68.3893C53.8123 68.3893 54.3463 67.8553 54.3463 67.1966C54.3463 66.5379 53.8123 66.0039 53.1536 66.0039C52.4949 66.0039 51.9609 66.5379 51.9609 67.1966C51.9609 67.8553 52.4949 68.3893 53.1536 68.3893Z" fill="white"/>
<path d="M67.3314 68.3893C67.9901 68.3893 68.5241 67.8553 68.5241 67.1966C68.5241 66.5379 67.9901 66.0039 67.3314 66.0039C66.6727 66.0039 66.1387 66.5379 66.1387 67.1966C66.1387 67.8553 66.6727 68.3893 67.3314 68.3893Z" fill="white"/>
<path d="M43.2917 50.2578H41.3624C41.0587 50.2578 40.8125 50.504 40.8125 50.8077V54.135C40.8125 54.4387 41.0587 54.6848 41.3624 54.6848H43.2917C43.5954 54.6848 43.8416 54.4387 43.8416 54.135V50.8077C43.8416 50.504 43.5954 50.2578 43.2917 50.2578Z" fill="#020100"/>
<path d="M79.116 50.2578H77.1866C76.8829 50.2578 76.6367 50.504 76.6367 50.8077V54.135C76.6367 54.4387 76.8829 54.6848 77.1866 54.6848H79.116C79.4196 54.6848 79.6658 54.4387 79.6658 54.135V50.8077C79.6658 50.504 79.4196 50.2578 79.116 50.2578Z" fill="#020100"/>
</g>
<defs>
<clipPath id="clip0_2106_2449">
<rect width="353.031" height="112.073" fill="white"/>
</clipPath>
</defs>
</svg>
